<svg width="203" height="183" viewBox="0 0 203 183" fill="none" xmlns="http://www.w3.org/2000/svg">
<path d="M162.4 81.8721C162.388 77.2551 160.79 72.7813 157.873 69.1939C154.955 65.6066 150.894 63.1218 146.363 62.1522C149.301 57.5481 151.273 52.3996 152.162 47.0163C153.05 41.6331 152.837 36.1263 151.534 30.8274C150.232 25.5284 147.867 20.5468 144.581 16.1821C141.296 11.8175 137.159 8.16003 132.418 5.42981C127.677 2.69959 122.431 0.953016 116.996 0.295164C111.56 -0.362688 106.047 0.0817766 100.788 1.60182C95.5293 3.12186 90.6334 5.68607 86.395 9.14019C82.1566 12.5943 78.6632 16.8669 76.1251 21.7011C71.762 13.8438 64.8989 7.65642 56.6172 4.11382C48.3356 0.571226 39.1063 -0.125148 30.3836 2.13443C21.661 4.39401 13.9409 9.48107 8.43988 16.594C2.93888 23.707 -0.0302968 32.4414 0.000233104 41.421C0.0587035 50.1965 2.97993 58.7151 8.32322 65.6917C5.76466 67.5543 3.67929 69.9879 2.23403 72.7976C0.788766 75.6073 0.0237563 78.715 0.000233104 81.8721V162.774C0.000233104 168.139 2.13897 173.283 5.94596 177.076C9.75294 180.869 14.9163 183 20.3002 183H142.1C147.484 183 152.647 180.869 156.454 177.076C160.261 173.283 162.4 168.139 162.4 162.774V136.077L203 156.302V85.5127L162.4 105.738V81.8721ZM111.65 21.1954C115.665 21.1954 119.59 22.3816 122.928 24.604C126.266 26.8265 128.868 29.9853 130.405 33.681C131.941 37.3767 132.343 41.4434 131.56 45.3668C130.777 49.2902 128.843 52.894 126.004 55.7226C123.165 58.5512 119.548 60.4775 115.61 61.2579C111.673 62.0383 107.591 61.6378 103.882 60.107C100.172 58.5762 97.0019 55.9838 94.7713 52.6577C92.5407 49.3316 91.3501 45.4212 91.3501 41.421C91.3501 36.0568 93.4889 30.9124 97.2959 27.1193C101.103 23.3263 106.266 21.1954 111.65 21.1954ZM40.6002 21.1954C44.6151 21.1954 48.5399 22.3816 51.8782 24.604C55.2166 26.8265 57.8185 29.9853 59.3549 33.681C60.8914 37.3767 61.2934 41.4434 60.5101 45.3668C59.7268 49.2902 57.7934 52.894 54.9544 55.7226C52.1154 58.5512 48.4983 60.4775 44.5605 61.2579C40.6227 62.0383 36.5411 61.6378 32.8317 60.107C29.1224 58.5762 25.952 55.9838 23.7214 52.6577C21.4908 49.3316 20.3002 45.4212 20.3002 41.421C20.3002 36.0568 22.4389 30.9124 26.2459 27.1193C30.0529 23.3263 35.2163 21.1954 40.6002 21.1954ZM20.3002 162.774V81.8721H142.1V162.774H20.3002Z" fill="black"/>
</svg>
