<svg width="212" height="173" viewBox="0 0 212 173" fill="none" xmlns="http://www.w3.org/2000/svg">
<path d="M126.475 79.3501C128.129 79.7883 129.834 80.0068 131.545 80.0001C134.965 79.986 138.323 79.0905 141.295 77.4001C145.2 75.1427 148.201 71.6015 149.788 67.3796C151.375 63.1577 151.45 58.5162 149.999 54.2455C148.548 49.9749 145.662 46.3393 141.831 43.9579C138.001 41.5764 133.463 40.5965 128.992 41.1849C124.52 41.7733 120.39 43.8936 117.306 47.1849C114.222 50.4761 112.374 54.7346 112.078 59.2352C111.781 63.7358 113.054 68.2001 115.679 71.8677C118.304 75.5354 122.119 78.1796 126.475 79.3501ZM125.045 49.2552C126.525 48.3146 128.179 47.683 129.909 47.3984C131.639 47.1139 133.409 47.1822 135.112 47.5993C136.815 48.0165 138.416 48.7738 139.819 49.8257C141.221 50.8776 142.397 52.2023 143.274 53.7203C144.152 55.2382 144.713 56.918 144.924 58.6585C145.136 60.399 144.993 62.1642 144.504 63.8481C144.016 65.532 143.192 67.0996 142.082 68.4567C140.972 69.8139 139.599 70.9324 138.045 71.7451C135.062 73.4659 131.518 73.9327 128.191 73.0431C124.864 72.1535 122.026 69.9801 120.3 67.0001C118.579 64.0171 118.112 60.4731 119.002 57.1462C119.892 53.8192 122.065 50.9812 125.045 49.2552ZM46.5251 93.6501C42.7955 92.6397 38.8497 92.7602 35.1886 93.9962C31.5275 95.2322 28.3162 97.5281 25.9622 100.592C23.6082 103.657 22.2177 107.351 21.9672 111.207C21.7167 115.063 22.6175 118.907 24.5552 122.25C26.2732 125.226 28.747 127.695 31.7262 129.407C34.7054 131.119 38.0841 132.014 41.5201 132C44.9199 131.992 48.2587 131.096 51.2051 129.4C54.5542 127.477 57.2568 124.602 58.9702 121.141C60.6836 117.68 61.3307 113.788 60.8294 109.959C60.3281 106.13 58.701 102.535 56.1544 99.6318C53.6078 96.7283 50.2564 94.6464 46.5251 93.6501ZM47.9551 123.745C44.9841 125.299 41.5275 125.645 38.3073 124.711C35.0871 123.777 32.3523 121.635 30.6744 118.732C28.9964 115.829 28.5049 112.39 29.3026 109.133C30.1003 105.876 32.1255 103.054 34.9552 101.255C36.9301 100.109 39.172 99.5041 41.4552 99.5001C42.5977 99.4913 43.7356 99.6445 44.8351 99.9551C48.1528 100.851 50.9805 103.025 52.7001 106C54.4209 108.983 54.8878 112.527 53.9981 115.854C53.1085 119.181 50.9352 122.019 47.9551 123.745ZM119 164.5C138.356 156.435 154.022 141.461 162.953 122.489C171.884 103.516 173.441 81.901 167.323 61.8442C161.204 41.7875 147.847 24.7222 129.847 13.9654C111.847 3.20858 90.4903 -0.471257 69.9283 3.64115C49.3663 7.75356 31.0678 19.3644 18.5897 36.2168C6.11152 53.0693 0.345162 73.9593 2.41142 94.8265C4.47768 115.694 14.2289 135.047 29.7698 149.125C45.3107 163.203 65.5309 171 86.5001 171H210V164.5H119ZM8.50018 86.5001C8.50018 71.0732 13.0748 55.9927 21.6455 43.1657C30.2163 30.3387 42.3982 20.3412 56.6508 14.4376C70.9035 8.53397 86.5866 6.98931 101.717 9.99896C116.848 13.0086 130.746 20.4374 141.654 31.3459C152.563 42.2543 159.992 56.1526 163.001 71.2831C166.011 86.4136 164.466 102.097 158.563 116.349C152.659 130.602 142.662 142.784 129.835 151.355C117.008 159.925 101.927 164.5 86.5001 164.5C65.8132 164.5 45.9737 156.282 31.3458 141.654C16.718 127.027 8.50018 107.187 8.50018 86.5001ZM51.2051 43.6002C46.723 41.0143 41.3972 40.3149 36.3993 41.6558C31.4015 42.9967 27.141 46.268 24.5552 50.7502C21.9693 55.2323 21.2699 60.5581 22.6108 65.5559C23.9517 70.5538 27.223 74.8143 31.7052 77.4001C34.6776 79.0905 38.0357 79.986 41.4552 80.0001C43.1664 80.0068 44.871 79.7883 46.5251 79.3501C50.2564 78.3538 53.6078 76.2719 56.1544 73.3684C58.701 70.465 60.3281 66.8707 60.8294 63.0414C61.3307 59.212 60.6836 55.3201 58.9702 51.8589C57.2568 48.3978 54.5542 45.5234 51.2051 43.6002ZM52.7001 67.0001C50.9741 69.9801 48.1361 72.1535 44.8091 73.0431C41.4822 73.9327 37.9382 73.4659 34.9552 71.7451C32.7271 70.4599 30.9305 68.5426 29.7925 66.2359C28.6545 63.9292 28.2264 61.3368 28.5623 58.7866C28.8982 56.2365 29.983 53.8434 31.6795 51.9101C33.376 49.9767 35.6079 48.5901 38.0927 47.9256C40.5776 47.2612 43.2037 47.3488 45.6387 48.1774C48.0737 49.006 50.2082 50.5383 51.7721 52.5804C53.336 54.6225 54.2589 57.0826 54.4241 59.6494C54.5893 62.2163 53.9893 64.7744 52.7001 67.0001ZM86.5001 15.0002C82.6434 15.0002 78.8733 16.1439 75.6665 18.2865C72.4597 20.4292 69.9604 23.4747 68.4845 27.0379C67.0086 30.601 66.6224 34.5218 67.3748 38.3044C68.1272 42.0871 69.9844 45.5616 72.7115 48.2887C75.4387 51.0159 78.9132 52.8731 82.6958 53.6255C86.4785 54.3779 90.3993 53.9917 93.9624 52.5158C97.5256 51.0399 100.571 48.5405 102.714 45.3338C104.856 42.127 106 38.3569 106 34.5002C106 29.3285 103.946 24.3686 100.289 20.7116C96.6317 17.0547 91.6718 15.0002 86.5001 15.0002ZM86.5001 47.5002C83.9289 47.5002 81.4155 46.7377 79.2777 45.3093C77.1399 43.8808 75.4736 41.8505 74.4897 39.4751C73.5057 37.0996 73.2483 34.4858 73.7499 31.964C74.2515 29.4423 75.4896 27.1259 77.3077 25.3078C79.1258 23.4897 81.4422 22.2516 83.9639 21.75C86.4857 21.2484 89.0995 21.5058 91.475 22.4898C93.8504 23.4737 95.8807 25.1399 97.3092 27.2778C98.7377 29.4156 99.5001 31.929 99.5001 34.5002C99.5001 37.948 98.1305 41.2546 95.6925 43.6926C93.2545 46.1305 89.9479 47.5002 86.5001 47.5002ZM148.445 122.25C149.727 120.031 150.559 117.581 150.893 115.041C151.228 112.5 151.058 109.918 150.394 107.443C149.73 104.968 148.584 102.648 147.023 100.616C145.462 98.5839 143.515 96.8794 141.295 95.6001C139.074 94.3163 136.622 93.4833 134.079 93.1487C131.536 92.8141 128.952 92.9845 126.475 93.6501C122.744 94.6464 119.392 96.7283 116.846 99.6318C114.299 102.535 112.672 106.13 112.171 109.959C111.669 113.788 112.317 117.68 114.03 121.141C115.743 124.602 118.446 127.477 121.795 129.4C124.742 131.096 128.08 131.992 131.48 132C134.916 132.014 138.295 131.119 141.274 129.407C144.253 127.695 146.727 125.226 148.445 122.25ZM142.79 119C141.977 120.554 140.859 121.927 139.502 123.037C138.145 124.147 136.577 124.971 134.893 125.459C133.209 125.948 131.444 126.091 129.703 125.879C127.963 125.668 126.283 125.107 124.765 124.229C123.247 123.352 121.922 122.176 120.871 120.774C119.819 119.371 119.061 117.77 118.644 116.067C118.227 114.364 118.159 112.594 118.443 110.864C118.728 109.134 119.359 107.48 120.3 106C122.026 103.02 124.864 100.847 128.191 99.9571C131.518 99.0675 135.062 99.5343 138.045 101.255C141.025 102.981 143.198 105.819 144.088 109.146C144.978 112.473 144.511 116.017 142.79 119ZM86.5001 67.0001C82.6434 67.0001 78.8733 68.1438 75.6665 70.2865C72.4597 72.4292 69.9604 75.4746 68.4845 79.0378C67.0086 82.6009 66.6224 86.5217 67.3748 90.3044C68.1272 94.087 69.9844 97.5616 72.7115 100.289C75.4387 103.016 78.9132 104.873 82.6958 105.625C86.4785 106.378 90.3993 105.992 93.9624 104.516C97.5256 103.04 100.571 100.54 102.714 97.3337C104.856 94.127 106 90.3568 106 86.5001C106 81.3284 103.946 76.3685 100.289 72.7115C96.6317 69.0546 91.6718 67.0001 86.5001 67.0001ZM86.5001 99.5001C83.9289 99.5001 81.4155 98.7376 79.2777 97.3092C77.1399 95.8807 75.4736 93.8504 74.4897 91.475C73.5057 89.0995 73.2483 86.4857 73.7499 83.9639C74.2515 81.4422 75.4896 79.1258 77.3077 77.3077C79.1258 75.4897 81.4422 74.2515 83.9639 73.7499C86.4857 73.2483 89.0995 73.5057 91.475 74.4897C93.8504 75.4736 95.8807 77.1399 97.3092 79.2777C98.7377 81.4155 99.5001 83.929 99.5001 86.5001C99.5001 89.9479 98.1305 93.2545 95.6925 95.6925C93.2545 98.1304 89.9479 99.5001 86.5001 99.5001ZM86.5001 119C82.6434 119 78.8733 120.144 75.6665 122.286C72.4597 124.429 69.9604 127.475 68.4845 131.038C67.0086 134.601 66.6224 138.522 67.3748 142.304C68.1272 146.087 69.9844 149.561 72.7115 152.289C75.4387 155.016 78.9132 156.873 82.6958 157.625C86.4785 158.378 90.3993 157.992 93.9624 156.516C97.5256 155.04 100.571 152.54 102.714 149.334C104.856 146.127 106 142.357 106 138.5C106 133.328 103.946 128.368 100.289 124.711C96.6317 121.055 91.6718 119 86.5001 119ZM86.5001 151.5C83.9289 151.5 81.4155 150.738 79.2777 149.309C77.1399 147.881 75.4736 145.85 74.4897 143.475C73.5057 141.099 73.2483 138.486 73.7499 135.964C74.2515 133.442 75.4896 131.126 77.3077 129.308C79.1258 127.49 81.4422 126.251 83.9639 125.75C86.4857 125.248 89.0995 125.506 91.475 126.49C93.8504 127.474 95.8807 129.14 97.3092 131.278C98.7377 133.415 99.5001 135.929 99.5001 138.5C99.5001 141.948 98.1305 145.254 95.6925 147.692C93.2545 150.13 89.9479 151.5 86.5001 151.5Z" fill="black" stroke="black" stroke-width="4"/>
</svg>
