<svg width="179" height="179" viewBox="0 0 179 179" fill="none" xmlns="http://www.w3.org/2000/svg">
<path d="M89.5 179C40.1293 179 0 138.871 0 89.5C0 40.1293 40.1293 0 89.5 0C138.871 0 179 40.1293 179 89.5C179 138.871 138.871 179 89.5 179ZM89.5 12.4884C47.0395 12.4884 12.4884 47.0395 12.4884 89.5C12.4884 131.96 47.0395 166.512 89.5 166.512C131.96 166.512 166.512 131.96 166.512 89.5C166.512 47.0395 131.96 12.4884 89.5 12.4884Z" fill="black"/>
<path d="M130.708 136.957C129.127 136.957 127.545 136.375 126.296 135.126C123.882 132.711 123.882 128.715 126.296 126.301C136.12 116.477 141.532 103.405 141.532 89.5016C141.532 75.5979 136.12 62.5271 126.296 52.7029C123.882 50.2885 123.882 46.2921 126.296 43.8777C128.71 41.4633 132.707 41.4633 135.121 43.8777C147.276 56.0331 154.02 72.268 154.02 89.5016C154.02 106.736 147.276 122.97 135.121 135.126C133.872 136.375 132.29 136.957 130.708 136.957Z" fill="black"/>
<path d="M48.2886 136.957C46.7067 136.957 45.1249 136.375 43.876 135.126C31.7207 122.97 24.9771 106.736 24.9771 89.5016C24.9771 72.268 31.7207 56.0331 43.876 43.8777C46.2905 41.4633 50.2867 41.4633 52.7012 43.8777C55.1156 46.2921 55.1156 50.2885 52.7012 52.7029C42.877 62.5271 37.4654 75.5979 37.4654 89.5016C37.4654 103.405 42.877 116.477 52.7012 126.301C55.1156 128.715 55.1156 132.711 52.7012 135.126C51.4523 136.375 49.8705 136.957 48.2886 136.957Z" fill="black"/>
<path d="M97.6611 122.969H83.0081C72.4342 122.969 63.7756 114.061 63.7756 103.155C63.7756 99.741 66.6063 96.9103 70.0198 96.9103C73.4336 96.9103 76.2643 99.741 76.2643 103.155C76.2643 107.234 79.2615 110.481 83.0081 110.481H97.6611C100.409 110.481 102.739 107.983 102.739 104.903C102.739 100.99 101.824 100.49 99.1597 99.5745L75.7648 91.4154C67.7719 88.5847 63.859 83.0066 63.859 74.2648C63.859 64.2741 71.6849 56.1982 81.4262 56.1982H96.0792C106.653 56.1982 115.311 65.1066 115.311 76.0131C115.311 79.4266 112.481 82.2573 109.067 82.2573C105.654 82.2573 102.823 79.4266 102.823 76.0131C102.823 71.9336 99.8257 68.6866 96.0792 68.6866H81.4262C78.6788 68.6866 76.3476 71.1843 76.3476 74.2648C76.3476 78.1778 77.2634 78.6773 79.9276 79.5931L103.322 87.7522C111.315 90.5829 115.227 96.161 115.227 104.903C115.144 114.81 107.319 122.969 97.6611 122.969Z" fill="black"/>
<path d="M89.5003 130.709C86.0868 130.709 83.2561 127.879 83.2561 124.465V54.5303C83.2561 51.1168 86.0868 48.2861 89.5003 48.2861C92.9138 48.2861 95.7445 51.1168 95.7445 54.5303V124.465C95.7445 127.879 92.9138 130.709 89.5003 130.709Z" fill="black"/>
</svg>
